<svg
    version="1.0"
    xmlns="http://www.w3.org/2000/svg"
    xmlns:xlink="http://www.w3.org/1999/xlink"
    width="512"
    height="512"
    viewBox="0 0 512 512"
  >
    <svg id="global-svg-defs" version="1.0" xmlns="http://www.w3.org/2000/svg" width="0" height="0" viewBox="0 0 340.000000 250.000000" preserveAspectRatio="xMidYMid meet" color-interpolation-filters="sRGB" class="el-tooltip" style="margin: auto;" xmlns:xlink="http://www.w3.org/1999/xlink">
    <defs>
      <pattern id="watermark" patternUnits="userSpaceOnUse" width="100%" height="100%">
        <image xlink:href="https://www.logoai.com/img/watermark/LOGOAI-watermark.png" x="0" y="0" width="100%" height="100%">
        </image>
      </pattern>
                    <linearGradient id="92" x1="0%" y1="0%" x2="100%" y2="0%">
          <stop offset="0%" stop-color="#fa71cd"></stop>
          <stop offset="100%" stop-color="#9b59b6"></stop>
        </linearGradient>
              <linearGradient id="93" x1="0%" y1="0%" x2="100%" y2="0%">
          <stop offset="0%" stop-color="#f9d423"></stop>
          <stop offset="100%" stop-color="#f83600"></stop>
        </linearGradient>
              <linearGradient id="94" x1="0%" y1="0%" x2="100%" y2="0%">
          <stop offset="0%" stop-color="#0064d2"></stop>
          <stop offset="100%" stop-color="#1cb0f6"></stop>
        </linearGradient>
              <linearGradient id="95" x1="0%" y1="0%" x2="100%" y2="0%">
          <stop offset="0%" stop-color="#f00978"></stop>
          <stop offset="100%" stop-color="#3f51b1"></stop>
        </linearGradient>
              <linearGradient id="96" x1="0%" y1="0%" x2="100%" y2="0%">
          <stop offset="0%" stop-color="#7873f5"></stop>
          <stop offset="100%" stop-color="#ec77ab"></stop>
        </linearGradient>
              <linearGradient id="97" x1="0%" y1="0%" x2="100%" y2="0%">
          <stop offset="0%" stop-color="#f9d423"></stop>
          <stop offset="100%" stop-color="#e14fad"></stop>
        </linearGradient>
              <linearGradient id="98" x1="0%" y1="0%" x2="100%" y2="0%">
          <stop offset="0%" stop-color="#009efd"></stop>
          <stop offset="100%" stop-color="#2af598"></stop>
        </linearGradient>
              <linearGradient id="99" x1="0%" y1="0%" x2="100%" y2="0%">
          <stop offset="0%" stop-color="#ffcc00"></stop>
          <stop offset="100%" stop-color="#00b140"></stop>
        </linearGradient>
              <linearGradient id="100" x1="0%" y1="0%" x2="100%" y2="0%">
          <stop offset="0%" stop-color="#d51007"></stop>
          <stop offset="100%" stop-color="#ff8177"></stop>
        </linearGradient>
              <linearGradient id="102" x1="0%" y1="0%" x2="100%" y2="0%">
          <stop offset="0%" stop-color="#a2b6df"></stop>
          <stop offset="100%" stop-color="#0c3483"></stop>
        </linearGradient>
              <linearGradient id="103" x1="0%" y1="0%" x2="100%" y2="0%">
          <stop offset="0%" stop-color="#7ac5d8"></stop>
          <stop offset="100%" stop-color="#eea2a2"></stop>
        </linearGradient>
              <linearGradient id="104" x1="0%" y1="0%" x2="100%" y2="0%">
          <stop offset="0%" stop-color="#00ecbc"></stop>
          <stop offset="100%" stop-color="#007adf"></stop>
        </linearGradient>
          </defs>
  </svg>
    <rect
      x="0"
      y="0"
      width="100%"
      height="100%"
      fill="transparent"
      fill-opacity="1"
    ></rect>
    <svg data-v-0dd9719b="" version="1.0" xmlns="http://www.w3.org/2000/svg" xmlns:xlink="http://www.w3.org/1999/xlink" width="100%" height="100%" viewBox="0 0 100 100" preserveAspectRatio="xMidYMid meet" color-interpolation-filters="sRGB" style="margin: auto;"> <rect data-v-0dd9719b="" x="0" y="0" width="100%" height="100%" fill="#ffffff" fill-opacity="1" class="background" style="display: none;"/> <rect data-v-0dd9719b="" x="0" y="0" width="100%" height="100%" fill="url(#watermark)" fill-opacity="1" class="watermarklayer" style="display: none;"/> <g data-v-0dd9719b="" fill="#333" class="iconsvg-imagesvg"><rect fill="#333" fill-opacity="0" stroke-width="2" x="0" y="0" width="100" height="100" class="image-rect"/> <svg viewBox="0 0 60 51.99982666724444" x="0" y="0" width="100" height="100" class="image-svg-svg bn" style="overflow: visible;"><g hollow-target="iconBnFill" mask="url(#a7c76a1d-e6df-412c-8023-97cab9127691)"><g><svg viewBox="0 0 75 65" xmlns="http://www.w3.org/2000/svg" style="overflow: visible;" width="60" height="51.99982666724444" x="0" y="0" filtersec="colorsb9762678334" filter="url(#BSnhmKybMEBxK4ys6uW1z)"><g transform="scale(1, 1) skewX(0)"><path d="M75 0L65 65H0L10 0z" fill="#000" fill-rule="nonzero"/></g><defs><filter id="BSnhmKybMEBxK4ys6uW1z"><feColorMatrix type="matrix" values="0 0 0 0 0.19921875  0 0 0 0 0.19921875  0 0 0 0 0.19921875  0 0 0 1 0"/></filter></defs></svg></g> <g filter="url(#colors9572768229)"><svg xmlns="http://www.w3.org/2000/svg" xmlns:xlink="http://www.w3.org/1999/xlink" viewBox="0 0 114.12 61.128000000000014" width="45" height="38.99987" x="7.5" y="6.49997833362222" class="image-svg-letter"><path transform="translate(-2.16 52.56000000000001)" d="M20.52-21.82L20.52-21.82L20.52-19.58L48.60-19.58L48.60-21.82Q48.60-23.76 48.28-25.42Q47.95-27.07 47.45-28.51L47.45-28.51L42.48-40.25Q41.69-42.12 40.82-43.38Q39.96-44.64 37.94-44.64L37.94-44.64L30.89-44.64Q28.73-44.64 27.86-43.38Q27.00-42.12 26.28-40.32L26.28-40.32L21.67-28.51Q21.17-27.07 20.84-25.42Q20.52-23.76 20.52-21.82ZM28.66-25.78L32.04-36.72Q32.33-37.37 32.65-37.66Q32.98-37.94 33.41-37.94L33.41-37.94L35.21-37.94Q35.64-37.94 35.96-37.66Q36.29-37.37 36.58-36.72L36.58-36.72L39.96-25.78L28.66-25.78ZM49.32-6.48L48.60-6.48L48.60-18.86L20.52-18.86L20.52-6.48L19.80-6.48L19.80-21.82Q19.80-23.83 20.12-25.52Q20.45-27.22 21.02-28.80L21.02-28.80L25.63-40.61Q26.42-42.62 27.43-43.99Q28.44-45.36 30.89-45.36L30.89-45.36L37.94-45.36Q40.32-45.36 41.29-43.99Q42.26-42.62 43.13-40.54L43.13-40.54L48.10-28.80Q48.67-27.22 49.00-25.52Q49.32-23.83 49.32-21.82L49.32-21.82L49.32-6.48ZM27.94-2.59L27.94-2.59L27.94-12.67L40.68-12.67L40.68-2.59Q40.68-1.22 41.36-0.61Q42.05 0 43.49 0L43.49 0L54.36 0Q55.73 0 56.34-0.61Q56.95-1.22 56.95-2.59L56.95-2.59L56.95-21.60Q56.95-23.76 56.27-26.57Q55.58-29.38 54.14-33.12L54.14-33.12L47.88-49.46Q47.45-50.69 46.55-51.26Q45.65-51.84 44.28-51.84L44.28-51.84L24.91-51.84Q23.47-51.84 22.57-51.26Q21.67-50.69 21.24-49.46L21.24-49.46L14.98-33.12Q13.54-29.38 12.85-26.57Q12.17-23.76 12.17-21.60L12.17-21.60L12.17-2.59Q12.17-1.22 12.78-0.61Q13.39 0 14.76 0L14.76 0L25.34 0Q26.71 0 27.32-0.61Q27.94-1.22 27.94-2.59ZM27.65 0.07L18.29 7.85Q18.00 8.14 17.39 8.35Q16.78 8.57 16.06 8.57L16.06 8.57L5.47 8.57Q3.74 8.57 2.95 7.78Q2.16 6.98 2.16 5.26L2.16 5.26L2.16-13.75Q2.16-15.98 2.84-18.83Q3.53-21.67 5.04-25.56L5.04-25.56L11.23-41.83Q11.45-42.48 11.77-42.95Q12.10-43.42 12.46-43.78L12.46-43.78L12.53-43.85L21.74-51.55Q22.32-52.06 23.11-52.31Q23.90-52.56 24.91-52.56L24.91-52.56L44.28-52.56Q45.94-52.56 46.98-51.88Q48.02-51.19 48.53-49.75L48.53-49.75L54.79-33.41Q56.30-29.52 56.99-26.68Q57.67-23.83 57.67-21.60L57.67-21.60L57.67-2.59Q57.67-1.66 57.42-1.01Q57.17-0.36 56.66 0.07L56.66 0.07L47.30 7.85Q47.02 8.14 46.40 8.35Q45.79 8.57 45.07 8.57L45.07 8.57L34.20 8.57Q32.40 8.57 31.54 7.74Q30.67 6.91 30.67 5.26L30.67 5.26L30.67-4.10L28.66-4.10L28.66-2.59Q28.66-1.66 28.40-1.01Q28.15-0.36 27.65 0.07L27.65 0.07ZM90 8.57L90 8.57L78.34 8.57Q76.54 8.57 75.78 7.78Q75.02 6.98 75.02 5.26L75.02 5.26L75.02-3.74L64.15-18.29Q62.42-20.59 61.85-22.32Q61.27-24.05 61.27-27.58L61.27-27.58L61.27-41.40Q61.27-42.34 61.52-42.98Q61.78-43.63 62.28-44.06L62.28-44.06L71.57-51.91Q71.93-52.20 72.54-52.38Q73.15-52.56 73.87-52.56L73.87-52.56L84.96-52.56Q86.69-52.56 87.48-51.77Q88.27-50.98 88.27-49.25L88.27-49.25L88.27-37.44Q88.27-36.79 88.34-36.14Q88.42-35.50 88.78-34.78L88.78-34.78L89.64-33.55L89.64-41.40Q89.64-42.34 89.89-42.98Q90.14-43.63 90.65-44.06L90.65-44.06L99.94-51.91Q100.30-52.20 100.91-52.38Q101.52-52.56 102.24-52.56L102.24-52.56L112.97-52.56Q114.70-52.56 115.49-51.77Q116.28-50.98 116.28-49.25L116.28-49.25L116.28-35.42Q116.28-31.90 115.70-30.17Q115.13-28.44 113.40-26.14L113.40-26.14L102.60-11.52L102.60-2.59Q102.60-1.66 102.35-1.01Q102.10-0.36 101.59 0.07L101.59 0.07L92.23 7.85Q91.94 8.14 91.33 8.35Q90.72 8.57 90 8.57ZM87.62 0L99.29 0Q100.66 0 101.27-0.61Q101.88-1.22 101.88-2.59L101.88-2.59L101.88-11.74L112.82-26.57Q114.41-28.80 114.98-30.46Q115.56-32.11 115.56-35.42L115.56-35.42L115.56-49.25Q115.56-50.62 114.95-51.23Q114.34-51.84 112.97-51.84L112.97-51.84L102.24-51.84Q100.87-51.84 100.26-51.23Q99.65-50.62 99.65-49.25L99.65-49.25L99.65-37.44Q99.65-36.72 99.58-35.93Q99.50-35.14 99-34.42L99-34.42L95.69-29.23Q95.33-28.58 94.93-28.30Q94.54-28.01 93.96-28.01L93.96-28.01L93.24-28.01Q92.66-28.01 92.27-28.30Q91.87-28.58 91.51-29.23L91.51-29.23L88.20-34.42Q87.70-35.14 87.62-35.93Q87.55-36.72 87.55-37.44L87.55-37.44L87.55-49.25Q87.55-50.62 86.94-51.23Q86.33-51.84 84.96-51.84L84.96-51.84L73.87-51.84Q72.50-51.84 71.89-51.23Q71.28-50.62 71.28-49.25L71.28-49.25L71.28-35.42Q71.28-32.11 71.82-30.46Q72.36-28.80 74.02-26.57L74.02-26.57L85.03-11.81L85.03-2.59Q85.03-1.22 85.64-0.61Q86.26 0 87.62 0L87.62 0ZM94.32-18.79L94.32-18.79L93.82-18.79L93.82-6.48L93.10-6.48L93.10-18.79L92.38-18.79Q90.79-18.79 89.53-19.51Q88.27-20.23 87.12-21.82L87.12-21.82L80.14-31.54Q79.34-32.62 79.20-34.06Q79.06-35.50 79.06-37.08L79.06-37.08L79.06-45.36L79.78-45.36L79.78-37.08Q79.78-35.57 79.92-34.24Q80.06-32.90 80.78-31.82L80.78-31.82L87.77-22.10Q88.70-20.66 89.93-20.09Q91.15-19.51 92.38-19.51L92.38-19.51L94.32-19.51Q95.69-19.51 96.80-20.12Q97.92-20.74 99-22.10L99-22.10L106.20-31.82Q106.92-32.76 107.06-34.16Q107.21-35.57 107.21-37.08L107.21-37.08L107.21-45.36L107.93-45.36L107.93-37.08Q107.93-35.50 107.82-34.09Q107.71-32.69 106.85-31.54L106.85-31.54L99.65-21.82Q98.50-20.23 97.24-19.51Q95.98-18.79 94.32-18.79Z"/></svg></g></g><mask id="a7c76a1d-e6df-412c-8023-97cab9127691"><g fill="white"><svg viewBox="0 0 75 65" xmlns="http://www.w3.org/2000/svg" style="overflow: visible;" width="60" height="51.99982666724444" x="0" y="0" filtersec="colorsb9762678334"><g transform="scale(1, 1) skewX(0)"><path d="M75 0L65 65H0L10 0z" fill-rule="nonzero"/></g><defs/></svg></g> <g fill="black"><svg xmlns="http://www.w3.org/2000/svg" xmlns:xlink="http://www.w3.org/1999/xlink" viewBox="0 0 114.12 61.128000000000014" width="45" height="38.99987" x="7.5" y="6.49997833362222" class="image-svg-letter"><path transform="translate(-2.16 52.56000000000001)" d="M20.52-21.82L20.52-21.82L20.52-19.58L48.60-19.58L48.60-21.82Q48.60-23.76 48.28-25.42Q47.95-27.07 47.45-28.51L47.45-28.51L42.48-40.25Q41.69-42.12 40.82-43.38Q39.96-44.64 37.94-44.64L37.94-44.64L30.89-44.64Q28.73-44.64 27.86-43.38Q27.00-42.12 26.28-40.32L26.28-40.32L21.67-28.51Q21.17-27.07 20.84-25.42Q20.52-23.76 20.52-21.82ZM28.66-25.78L32.04-36.72Q32.33-37.37 32.65-37.66Q32.98-37.94 33.41-37.94L33.41-37.94L35.21-37.94Q35.64-37.94 35.96-37.66Q36.29-37.37 36.58-36.72L36.58-36.72L39.96-25.78L28.66-25.78ZM49.32-6.48L48.60-6.48L48.60-18.86L20.52-18.86L20.52-6.48L19.80-6.48L19.80-21.82Q19.80-23.83 20.12-25.52Q20.45-27.22 21.02-28.80L21.02-28.80L25.63-40.61Q26.42-42.62 27.43-43.99Q28.44-45.36 30.89-45.36L30.89-45.36L37.94-45.36Q40.32-45.36 41.29-43.99Q42.26-42.62 43.13-40.54L43.13-40.54L48.10-28.80Q48.67-27.22 49.00-25.52Q49.32-23.83 49.32-21.82L49.32-21.82L49.32-6.48ZM27.94-2.59L27.94-2.59L27.94-12.67L40.68-12.67L40.68-2.59Q40.68-1.22 41.36-0.61Q42.05 0 43.49 0L43.49 0L54.36 0Q55.73 0 56.34-0.61Q56.95-1.22 56.95-2.59L56.95-2.59L56.95-21.60Q56.95-23.76 56.27-26.57Q55.58-29.38 54.14-33.12L54.14-33.12L47.88-49.46Q47.45-50.69 46.55-51.26Q45.65-51.84 44.28-51.84L44.28-51.84L24.91-51.84Q23.47-51.84 22.57-51.26Q21.67-50.69 21.24-49.46L21.24-49.46L14.98-33.12Q13.54-29.38 12.85-26.57Q12.17-23.76 12.17-21.60L12.17-21.60L12.17-2.59Q12.17-1.22 12.78-0.61Q13.39 0 14.76 0L14.76 0L25.34 0Q26.71 0 27.32-0.61Q27.94-1.22 27.94-2.59ZM27.65 0.07L18.29 7.85Q18.00 8.14 17.39 8.35Q16.78 8.57 16.06 8.57L16.06 8.57L5.47 8.57Q3.74 8.57 2.95 7.78Q2.16 6.98 2.16 5.26L2.16 5.26L2.16-13.75Q2.16-15.98 2.84-18.83Q3.53-21.67 5.04-25.56L5.04-25.56L11.23-41.83Q11.45-42.48 11.77-42.95Q12.10-43.42 12.46-43.78L12.46-43.78L12.53-43.85L21.74-51.55Q22.32-52.06 23.11-52.31Q23.90-52.56 24.91-52.56L24.91-52.56L44.28-52.56Q45.94-52.56 46.98-51.88Q48.02-51.19 48.53-49.75L48.53-49.75L54.79-33.41Q56.30-29.52 56.99-26.68Q57.67-23.83 57.67-21.60L57.67-21.60L57.67-2.59Q57.67-1.66 57.42-1.01Q57.17-0.36 56.66 0.07L56.66 0.07L47.30 7.85Q47.02 8.14 46.40 8.35Q45.79 8.57 45.07 8.57L45.07 8.57L34.20 8.57Q32.40 8.57 31.54 7.74Q30.67 6.91 30.67 5.26L30.67 5.26L30.67-4.10L28.66-4.10L28.66-2.59Q28.66-1.66 28.40-1.01Q28.15-0.36 27.65 0.07L27.65 0.07ZM90 8.57L90 8.57L78.34 8.57Q76.54 8.57 75.78 7.78Q75.02 6.98 75.02 5.26L75.02 5.26L75.02-3.74L64.15-18.29Q62.42-20.59 61.85-22.32Q61.27-24.05 61.27-27.58L61.27-27.58L61.27-41.40Q61.27-42.34 61.52-42.98Q61.78-43.63 62.28-44.06L62.28-44.06L71.57-51.91Q71.93-52.20 72.54-52.38Q73.15-52.56 73.87-52.56L73.87-52.56L84.96-52.56Q86.69-52.56 87.48-51.77Q88.27-50.98 88.27-49.25L88.27-49.25L88.27-37.44Q88.27-36.79 88.34-36.14Q88.42-35.50 88.78-34.78L88.78-34.78L89.64-33.55L89.64-41.40Q89.64-42.34 89.89-42.98Q90.14-43.63 90.65-44.06L90.65-44.06L99.94-51.91Q100.30-52.20 100.91-52.38Q101.52-52.56 102.24-52.56L102.24-52.56L112.97-52.56Q114.70-52.56 115.49-51.77Q116.28-50.98 116.28-49.25L116.28-49.25L116.28-35.42Q116.28-31.90 115.70-30.17Q115.13-28.44 113.40-26.14L113.40-26.14L102.60-11.52L102.60-2.59Q102.60-1.66 102.35-1.01Q102.10-0.36 101.59 0.07L101.59 0.07L92.23 7.85Q91.94 8.14 91.33 8.35Q90.72 8.57 90 8.57ZM87.62 0L99.29 0Q100.66 0 101.27-0.61Q101.88-1.22 101.88-2.59L101.88-2.59L101.88-11.74L112.82-26.57Q114.41-28.80 114.98-30.46Q115.56-32.11 115.56-35.42L115.56-35.42L115.56-49.25Q115.56-50.62 114.95-51.23Q114.34-51.84 112.97-51.84L112.97-51.84L102.24-51.84Q100.87-51.84 100.26-51.23Q99.65-50.62 99.65-49.25L99.65-49.25L99.65-37.44Q99.65-36.72 99.58-35.93Q99.50-35.14 99-34.42L99-34.42L95.69-29.23Q95.33-28.58 94.93-28.30Q94.54-28.01 93.96-28.01L93.96-28.01L93.24-28.01Q92.66-28.01 92.27-28.30Q91.87-28.58 91.51-29.23L91.51-29.23L88.20-34.42Q87.70-35.14 87.62-35.93Q87.55-36.72 87.55-37.44L87.55-37.44L87.55-49.25Q87.55-50.62 86.94-51.23Q86.33-51.84 84.96-51.84L84.96-51.84L73.87-51.84Q72.50-51.84 71.89-51.23Q71.28-50.62 71.28-49.25L71.28-49.25L71.28-35.42Q71.28-32.11 71.82-30.46Q72.36-28.80 74.02-26.57L74.02-26.57L85.03-11.81L85.03-2.59Q85.03-1.22 85.64-0.61Q86.26 0 87.62 0L87.62 0ZM94.32-18.79L94.32-18.79L93.82-18.79L93.82-6.48L93.10-6.48L93.10-18.79L92.38-18.79Q90.79-18.79 89.53-19.51Q88.27-20.23 87.12-21.82L87.12-21.82L80.14-31.54Q79.34-32.62 79.20-34.06Q79.06-35.50 79.06-37.08L79.06-37.08L79.06-45.36L79.78-45.36L79.78-37.08Q79.78-35.57 79.92-34.24Q80.06-32.90 80.78-31.82L80.78-31.82L87.77-22.10Q88.70-20.66 89.93-20.09Q91.15-19.51 92.38-19.51L92.38-19.51L94.32-19.51Q95.69-19.51 96.80-20.12Q97.92-20.74 99-22.10L99-22.10L106.20-31.82Q106.92-32.76 107.06-34.16Q107.21-35.57 107.21-37.08L107.21-37.08L107.21-45.36L107.93-45.36L107.93-37.08Q107.93-35.50 107.82-34.09Q107.71-32.69 106.85-31.54L106.85-31.54L99.65-21.82Q98.50-20.23 97.24-19.51Q95.98-18.79 94.32-18.79Z"/></svg></g></mask></svg> <defs><filter id="colors9572768229"><feColorMatrix type="matrix" values="0 0 0 0 0.19921875  0 0 0 0 0.19921875  0 0 0 0 0.19921875  0 0 0 1 0" class="icon-fecolormatrix"/></filter> <filter id="colorsf1429784138"><feColorMatrix type="matrix" values="0 0 0 0 0.99609375  0 0 0 0 0.99609375  0 0 0 0 0.99609375  0 0 0 1 0" class="icon-fecolormatrix"/></filter> <filter id="colorsb9762678334"><feColorMatrix type="matrix" values="0 0 0 0 0  0 0 0 0 0  0 0 0 0 0  0 0 0 1 0" class="icon-fecolormatrix"/></filter></defs></g><defs v-gra="od"/></svg>
  </svg>